<?xml version="1.0" standalone="no"?>
<!DOCTYPE svg PUBLIC "-//W3C//DTD SVG 20010904//EN"
 "http://www.w3.org/TR/2001/REC-SVG-20010904/DTD/svg10.dtd">
<svg version="1.0" xmlns="http://www.w3.org/2000/svg"
 width="497.000000pt" height="93.000000pt" viewBox="0 0 497.000000 93.000000"
 preserveAspectRatio="xMidYMid meet">

<g transform="translate(0.000000,93.000000) scale(0.100000,-0.100000)"
fill="#000000" stroke="none">
<path d="M3344 820 c0 -52 1 -74 3 -47 2 26 2 68 0 95 -2 26 -3 4 -3 -48z"/>
<path d="M3470 806 c0 -2 8 -10 18 -17 15 -13 16 -12 3 4 -13 16 -21 21 -21
13z"/>
<path d="M1808 794 c-5 -4 -8 -70 -8 -147 l0 -139 110 4 c97 3 112 5 132 25
27 27 31 91 6 106 -14 9 -14 13 0 37 19 33 10 75 -23 96 -26 17 -204 32 -217
18z m140 -87 c3 -12 -3 -17 -22 -17 -25 0 -35 18 -19 34 12 12 38 2 41 -17z
m7 -107 c0 -9 -11 -16 -27 -18 -23 -3 -28 1 -28 18 0 17 5 21 28 18 16 -2 27
-9 27 -18z"/>
<path d="M2200 783 c-46 -24 -60 -54 -60 -136 0 -66 2 -71 35 -104 35 -35 36
-35 106 -31 65 3 74 6 100 36 26 29 29 40 29 97 0 106 -30 143 -123 151 -38 4
-61 0 -87 -13z m98 -131 c3 -60 2 -62 -21 -62 -27 0 -37 16 -37 61 0 40 18 71
38 67 13 -3 18 -17 20 -66z"/>
<path d="M2502 792 c-9 -6 -12 -42 -10 -143 l3 -134 113 -3 112 -3 0 41 0 40
-60 0 -59 0 -3 103 -3 102 -40 3 c-22 1 -46 -2 -53 -6z"/>
<path d="M2843 785 c-35 -15 -53 -41 -53 -79 0 -54 28 -77 108 -91 74 -12 47
-26 -38 -19 -84 7 -91 4 -70 -37 25 -47 138 -65 205 -34 51 25 69 80 40 122
-14 21 -44 33 -118 48 -53 11 -17 22 53 17 39 -2 70 -1 70 4 0 21 -34 57 -66
70 -42 18 -90 17 -131 -1z"/>
<path d="M3142 680 c0 -14 2 -19 5 -12 2 6 2 18 0 25 -3 6 -5 1 -5 -13z"/>
<path d="M3541 684 c0 -11 3 -14 6 -6 3 7 2 16 -1 19 -3 4 -6 -2 -5 -13z"/>
<path d="M3100 640 c-29 -5 -24 -7 30 -11 36 -2 81 -1 100 2 35 6 35 6 5 8
-16 1 -46 3 -65 4 -19 2 -51 0 -70 -3z"/>
<path d="M3460 640 l-35 -6 35 -4 c19 -3 64 -2 100 1 36 3 52 7 35 8 -68 6
-102 6 -135 1z"/>
<path d="M3141 594 c0 -11 3 -14 6 -6 3 7 2 16 -1 19 -3 4 -6 -2 -5 -13z"/>
<path d="M3541 594 c0 -11 3 -14 6 -6 3 7 2 16 -1 19 -3 4 -6 -2 -5 -13z"/>
<path d="M3344 455 c0 -55 1 -76 3 -47 2 29 2 74 0 100 -2 26 -3 2 -3 -53z"/>
<path d="M3479 473 c-13 -16 -12 -17 4 -4 16 13 21 21 13 21 -2 0 -10 -8 -17
-17z"/>
<path d="M1167 384 c-4 -4 -7 -70 -7 -146 l0 -138 50 0 50 0 0 45 0 45 60 0
60 0 0 40 0 40 -60 0 c-46 0 -60 3 -60 15 0 10 16 15 63 17 l62 3 0 40 0 40
-106 3 c-58 1 -108 -1 -112 -4z"/>
<path d="M1553 382 c-10 -6 -103 -253 -103 -274 0 -4 20 -8 45 -8 34 0 47 5
55 20 15 29 95 29 103 0 4 -16 14 -20 51 -20 33 0 46 4 46 14 0 20 -80 248
-92 264 -11 13 -86 16 -105 4z m66 -149 c1 -7 -8 -13 -19 -13 -23 0 -23 0 -9
37 10 26 12 27 19 8 5 -11 9 -26 9 -32z"/>
<path d="M1876 375 c-94 -50 -65 -152 48 -169 25 -4 48 -12 52 -17 4 -7 -23
-8 -80 -3 -91 7 -97 4 -76 -37 40 -73 236 -62 256 15 15 61 -18 100 -95 114
-75 12 -61 30 19 24 78 -5 90 6 48 46 -46 43 -119 54 -172 27z"/>
<path d="M2214 376 c-49 -22 -64 -51 -64 -128 0 -114 31 -148 135 -148 81 0
134 35 135 88 0 20 -5 22 -50 22 -36 0 -52 -4 -56 -15 -8 -20 -50 -19 -58 1
-9 24 -7 73 4 95 13 23 33 25 50 4 8 -10 30 -15 61 -15 40 0 49 3 49 18 0 69
-121 115 -206 78z"/>
<path d="M2507 384 c-4 -4 -7 -70 -7 -146 l0 -138 50 0 51 0 -3 143 -3 142
-40 3 c-23 2 -44 0 -48 -4z"/>
<path d="M2743 375 c-35 -15 -53 -41 -53 -79 0 -54 28 -77 108 -91 74 -12 47
-26 -38 -19 -84 7 -91 4 -70 -37 25 -47 138 -65 205 -34 51 25 69 80 40 122
-14 21 -44 33 -118 48 -53 11 -17 22 53 17 39 -2 70 -1 70 4 0 21 -34 57 -66
70 -42 18 -90 17 -131 -1z"/>
<path d="M3037 383 c-4 -3 -7 -69 -7 -145 l0 -138 45 0 45 0 0 58 1 57 18 -22
c24 -29 55 -29 75 -2 14 21 15 19 18 -32 l3 -54 48 -3 48 -3 -3 143 -3 143
-37 3 c-36 3 -39 0 -74 -53 l-36 -56 -30 48 c-17 26 -36 51 -42 55 -14 10 -60
10 -69 1z"/>
<path d="M3485 376 c-47 -21 -66 -49 -72 -109 -11 -112 33 -167 137 -167 75 0
115 25 131 82 13 50 5 122 -17 156 -31 47 -117 65 -179 38z m90 -131 c0 -57
-1 -60 -25 -60 -23 0 -25 4 -28 49 -4 62 2 78 30 74 21 -3 23 -8 23 -63z"/>
</g>
</svg>
